<svg xmlns="http://www.w3.org/2000/svg" xmlns:xlink="http://www.w3.org/1999/xlink" width="20.000244140625" height="20.00006103515625" viewBox="0 0 20.000244140625 20.00006103515625" fill="none">
<path d="M18.0001 5.33335L16.0001 5.33335L16.0001 12.6667C16.0001 13.5507 15.6489 14.3986 15.0238 15.0237C14.3986 15.6488 13.5508 16 12.6667 16L5.3334 16L5.3334 18C5.3334 18.5304 5.54411 19.0392 5.91918 19.4142C6.29426 19.7893 6.80297 20 7.3334 20L18.0001 20C18.5305 20 19.0392 19.7893 19.4143 19.4142C19.7894 19.0392 20.0001 18.5304 20.0001 18L20.0001 7.33335C20.0001 6.80292 19.7894 6.29421 19.4143 5.91914C19.0392 5.54406 18.5305 5.33335 18.0001 5.33335Z"   fill="#FFFFFF" >
</path>
<path d="M12.667 0L2 0C0.895 0 0 0.895 0 2L0 12.667C0 13.771 0.895 14.667 2 14.667L12.667 14.667C13.771 14.667 14.667 13.771 14.667 12.667L14.667 2C14.667 0.895 13.771 0 12.667 0Z"   fill="#FFFFFF" >
</path>
</svg>
