<svg width="35" height="36" viewBox="0 0 35 36" fill="none" xmlns="http://www.w3.org/2000/svg">
<path d="M29.3284 16.3749C29.3279 16.3743 29.3273 16.3738 29.3267 16.3732L19.1277 6.17451C18.6929 5.73959 18.115 5.5 17.5002 5.5C16.8854 5.5 16.3074 5.7394 15.8724 6.17432L5.67873 16.3678C5.6753 16.3713 5.67186 16.3749 5.66843 16.3783C4.7757 17.2762 4.77722 18.733 5.67282 19.6286C6.08198 20.038 6.62239 20.2751 7.20019 20.2999C7.22365 20.3022 7.2473 20.3033 7.27115 20.3033H7.67764V27.8089C7.67764 29.2941 8.88607 30.5026 10.3717 30.5026H14.3619C14.7663 30.5026 15.0944 30.1746 15.0944 29.7701V23.8857C15.0944 23.2079 15.6456 22.6566 16.3234 22.6566H18.6769C19.3547 22.6566 19.9059 23.2079 19.9059 23.8857V29.7701C19.9059 30.1746 20.2339 30.5026 20.6384 30.5026H24.6286C26.1142 30.5026 27.3227 29.2941 27.3227 27.8089V20.3033H27.6996C28.3142 20.3033 28.8922 20.0639 29.3273 19.629C30.2239 18.7319 30.2242 17.2726 29.3284 16.3749Z" fill="#878787"/>
</svg>
