<svg xmlns="http://www.w3.org/2000/svg" xmlns:xlink="http://www.w3.org/1999/xlink" width="10" height="17" viewBox="0 0 10 17" fill="none">
<path d="M0.271514 7.83666L7.84631 0.271583C8.02151 0.0964708 8.25538 -2.80557e-16 8.50475 -2.40455e-16C8.75412 -2.00353e-16 8.98799 0.0964708 9.16318 0.271583L9.72101 0.82857C10.084 1.19151 10.084 1.78139 9.72101 2.14378L3.36027 8.49648L9.72807 14.8562C9.90327 15.0313 10 15.2648 10 15.5137C10 15.7629 9.90327 15.9963 9.72807 16.1716L9.17024 16.7284C8.99491 16.9035 8.76118 17 8.5118 17C8.26243 17 8.02856 16.9035 7.85337 16.7284L0.271514 9.15643C0.0959024 8.98076 -0.000551224 8.74622 1.90735e-06 8.49689C-0.000551224 8.24659 0.0959024 8.01219 0.271514 7.83666Z"   fill="#FFFFFF" >
</path>
</svg>
