<svg width="35" height="36" viewBox="0 0 35 36" fill="none" xmlns="http://www.w3.org/2000/svg">
<path d="M10.0053 13.115C10.1513 12.7891 10.2331 12.4286 10.2331 12.0492C10.2331 11.8627 10.2132 11.6808 10.1759 11.5053C9.92476 10.3227 8.87281 9.43267 7.61658 9.43267C6.17376 9.43267 5 10.6064 5 12.0492C5 13.492 6.17376 14.6658 7.61658 14.6658C8.12091 14.6658 8.59216 14.522 8.99211 14.2738L10.033 15.1836C10.325 14.759 10.6654 14.37 11.0464 14.0251L10.0053 13.115Z" fill="#fff"/>
<path d="M23.49 5.5C21.739 5.5 20.3145 6.92451 20.3145 8.67553C20.3145 8.90187 20.3388 9.12262 20.384 9.33568C20.4851 9.81221 20.6937 10.2492 20.9828 10.6209L18.885 13.291C19.3248 13.5608 19.7307 13.8808 20.0944 14.243L22.1924 11.5727C22.5889 11.751 23.0279 11.8511 23.49 11.8511C25.241 11.8511 26.6655 10.4266 26.6655 8.67553C26.6655 6.92451 25.241 5.5 23.49 5.5Z" fill="#fff"/>
<path d="M10.6409 26.5861L12.1465 24.5836C11.7008 24.323 11.2882 24.0119 10.9171 23.6575L9.41176 25.6597C9.0316 25.4984 8.6138 25.4091 8.17553 25.4091C6.42456 25.4091 5 26.8336 5 28.5847C5 30.3357 6.42451 31.7602 8.17548 31.7602C9.92645 31.7602 11.351 30.3357 11.351 28.5847C11.351 28.3766 11.3303 28.1733 11.2919 27.9762C11.1906 27.4566 10.9625 26.9821 10.6409 26.5861Z" fill="#fff"/>
<path d="M15.4556 13.8632C12.6776 13.8632 10.4174 16.1233 10.4174 18.9014C10.4174 21.6794 12.6775 23.9395 15.4556 23.9395C18.2336 23.9395 20.4938 21.6794 20.4938 18.9014C20.4938 16.1233 18.2337 13.8632 15.4556 13.8632Z" fill="#fff"/>
<path d="M25.7913 20.9369C24.5436 20.9369 23.4215 21.4832 22.65 22.3486L21.4443 21.6202C21.2296 22.0912 20.9609 22.5324 20.6462 22.9363L21.8523 23.6649C21.6785 24.1258 21.5826 24.6246 21.5826 25.1455C21.5826 25.4214 21.6101 25.6907 21.661 25.9519C22.0383 27.8881 23.7464 29.3542 25.7913 29.3542C28.112 29.3542 30 27.4662 30 25.1455C30.0001 22.8249 28.112 20.9369 25.7913 20.9369Z" fill="#fff"/>
</svg>
