<svg xmlns="http://www.w3.org/2000/svg" xmlns:xlink="http://www.w3.org/1999/xlink" width="25" height="22.9200439453125" viewBox="0 0 25 22.9200439453125" fill="none">
<path d="M1.821 8.96466C1.65923 8.87145 1.45986 8.87199 1.3001 8.96618L1.03154 9.12204C0.046777 9.69655 -0.293018 10.9729 0.275683 11.9665L1.10991 13.4256C1.20352 13.5907 1.37847 13.688 1.56162 13.688C1.6064 13.688 1.65112 13.6823 1.6959 13.6706C1.92378 13.6095 2.08247 13.4027 2.08247 13.1664L2.08247 9.41691C2.08247 9.23053 1.98276 9.05788 1.821 8.96466Z"   fill="#878787" >
</path>
<path d="M7.89654 6.24063L21.1331 6.24063C21.3193 6.24063 21.4902 6.14186 21.5838 5.98087C21.6774 5.81993 21.6774 5.6213 21.5848 5.45987L19.0496 1.02589C18.5013 0.066367 17.1797 -0.293204 16.2214 0.262949L7.63409 5.26837C7.43063 5.38702 7.33194 5.62745 7.39401 5.85509C7.45504 6.08272 7.66153 6.24063 7.89654 6.24063Z"   fill="#878787" >
</path>
<path d="M22.9167 7.29163L5.20835 7.29163C4.05986 7.29163 3.125 8.22595 3.125 9.37493L3.125 20.8333C3.125 21.9823 4.05986 22.9166 5.20835 22.9166L22.9167 22.9166C24.0651 22.9166 25 21.9823 25 20.8333L25 9.37493C25 8.22595 24.0651 7.29163 22.9167 7.29163ZM9.37539 11.4671C10.5239 11.4671 11.4588 12.4022 11.4588 13.5521C11.4588 14.702 10.5239 15.637 9.37539 15.637C8.22686 15.637 7.29199 14.702 7.29199 13.5521C7.29199 12.4022 8.22686 11.4671 9.37539 11.4671ZM13.5422 18.7969C13.5422 19.3538 13.0753 19.8069 12.5005 19.8069L6.25024 19.8069C5.67549 19.8069 5.20854 19.3538 5.20854 18.7969L5.20854 18.5587C5.20854 17.8655 5.6124 17.2399 6.26348 16.9263C6.99185 16.5761 8.12207 16.1582 9.37539 16.1582C10.6287 16.1582 11.7589 16.5761 12.4873 16.9263C13.1384 17.2399 13.5422 17.8655 13.5422 18.5587L13.5422 18.7969ZM22.3958 17.7083L16.1456 17.7083C15.8577 17.7083 15.6247 17.4753 15.6247 17.1874C15.6247 16.8995 15.8577 16.6666 16.1456 16.6666L22.3958 16.6666C22.6837 16.6666 22.9167 16.8995 22.9167 17.1874C22.9167 17.4753 22.6837 17.7083 22.3958 17.7083ZM22.3968 14.5833L14.0631 14.5833C13.7752 14.5833 13.5422 14.3503 13.5422 14.0624C13.5422 13.7745 13.7752 13.5416 14.0631 13.5416L22.3968 13.5416C22.6847 13.5416 22.9176 13.7745 22.9176 14.0624C22.9176 14.3503 22.6847 14.5833 22.3968 14.5833Z"   fill="#878787" >
</path>
</svg>
