<svg width="18" height="18" viewBox="0 0 18 18" fill="none" xmlns="http://www.w3.org/2000/svg">
<path d="M8.99469 0C13.9666 0 17.9965 4.0299 17.9965 9.00177C17.9965 13.9736 13.9666 18 8.99823 18C4.02636 18 2.33205e-06 13.9701 2.33205e-06 9.00177C-0.00353888 4.0299 4.02636 0 8.99469 0Z" fill="#8247E5"/>
<mask id="mask0_343_3668" style="mask-type:luminance" maskUnits="userSpaceOnUse" x="3" y="3" width="12" height="12">
<path d="M14.8307 3.89185H3.03491V14.2287H14.8307V3.89185Z" fill="white"/>
</mask>
<g mask="url(#mask0_343_3668)">
<path d="M11.9445 7.03991C11.7285 6.91596 11.4523 6.91596 11.2079 7.03991L9.48688 8.05978L8.31828 8.70782L6.62912 9.72415C6.41311 9.84809 6.13689 9.84809 5.89255 9.72415L4.57168 8.92029C4.35566 8.79635 4.20339 8.54846 4.20339 8.27225V6.72828C4.20339 6.48039 4.32733 6.23605 4.57168 6.08024L5.89255 5.30825C6.10856 5.18431 6.38478 5.18431 6.62912 5.30825L7.95 6.11211C8.16601 6.23605 8.31828 6.48394 8.31828 6.76015V7.78002L9.48688 7.10011V6.05191C9.48688 5.80402 9.36294 5.55968 9.1186 5.40386L6.66099 3.95197C6.44498 3.82802 6.16876 3.82802 5.92442 3.95197L3.40662 5.43573C3.16227 5.55968 3.03833 5.80756 3.03833 6.05191V8.95216C3.03833 9.20005 3.16227 9.44439 3.40662 9.6002L5.89609 11.0521C6.1121 11.176 6.38832 11.176 6.63266 11.0521L8.32182 10.0641L9.49042 9.38419L11.1796 8.39619C11.3956 8.27225 11.6718 8.27225 11.9162 8.39619L13.237 9.16818C13.453 9.29212 13.6053 9.54 13.6053 9.81622V11.3602C13.6053 11.6081 13.4814 11.8524 13.237 12.0082L11.948 12.7802C11.732 12.9042 11.4558 12.9042 11.2115 12.7802L9.88704 12.0082C9.67103 11.8843 9.51875 11.6364 9.51875 11.3602V10.3722L8.35015 11.0521V12.072C8.35015 12.3199 8.4741 12.5642 8.71844 12.72L11.2079 14.1719C11.4239 14.2959 11.7001 14.2959 11.9445 14.1719L14.434 12.72C14.65 12.5961 14.8022 12.3482 14.8022 12.072V9.13985C14.8022 8.89196 14.6783 8.64762 14.434 8.49181L11.9445 7.03991Z" fill="white"/>
</g>
</svg>
