<svg xmlns="http://www.w3.org/2000/svg" xmlns:xlink="http://www.w3.org/1999/xlink" width="18" height="18" viewBox="0 0 18 18" fill="none">
<path d="M8.99481 0C13.9667 0 17.9966 4.0299 17.9966 9.00177C17.9966 13.9736 13.9667 18 8.99835 18C4.02649 18 0.000124402 13.9701 0.000124402 9.00177C-0.00341681 4.0299 4.02649 0 8.99481 0Z"   fill="#8247E5" >
</path>
<path d="M14.831 3.8918L3.03499 3.8918L3.03499 14.2288L14.831 14.2288L14.831 3.8918Z"   fill="#000000" >
</path>
<g  mask="url(#mask-_a8cjSo8mGKyDewF6gcWZ)">
<path d="M11.9446 7.03983C11.7286 6.91589 11.4524 6.91589 11.208 7.03983L9.48701 8.0597L8.31841 8.70774L6.62924 9.72407C6.41323 9.84802 6.13702 9.84802 5.89267 9.72407L4.5718 8.92022C4.35578 8.79628 4.20351 8.54839 4.20351 8.27218L4.20351 6.72821C4.20351 6.48032 4.32745 6.23598 4.5718 6.08016L5.89267 5.30818C6.10869 5.18424 6.3849 5.18424 6.62924 5.30818L7.95012 6.11203C8.16613 6.23598 8.31841 6.48386 8.31841 6.76008L8.31841 7.77995L9.48701 7.10003L9.48701 6.05183C9.48701 5.80395 9.36306 5.5596 9.11872 5.40379L6.66112 3.95189C6.4451 3.82795 6.16889 3.82795 5.92454 3.95189L3.40674 5.43566C3.16239 5.5596 3.03845 5.80749 3.03845 6.05183L3.03845 8.95209C3.03845 9.19998 3.16239 9.44432 3.40674 9.60013L5.89621 11.052C6.11223 11.176 6.38844 11.176 6.63279 11.052L8.32195 10.064L9.49055 9.38412L11.1797 8.39612C11.3957 8.27218 11.6719 8.27218 11.9163 8.39612L13.2372 9.1681C13.4532 9.29205 13.6054 9.53993 13.6054 9.81615L13.6054 11.3601C13.6054 11.608 13.4815 11.8523 13.2372 12.0082L11.9482 12.7801C11.7321 12.9041 11.4559 12.9041 11.2116 12.7801L9.88716 12.0082C9.67115 11.8842 9.51888 11.6363 9.51888 11.3601L9.51888 10.3721L8.35028 11.052L8.35028 12.0719C8.35028 12.3198 8.47422 12.5641 8.71856 12.7199L11.208 14.1718C11.4241 14.2958 11.7003 14.2958 11.9446 14.1718L14.4341 12.7199C14.6501 12.596 14.8024 12.3481 14.8024 12.0719L14.8024 9.13977C14.8024 8.89189 14.6784 8.64754 14.4341 8.49173L11.9446 7.03983Z"   fill="#FFFFFF" >
</path>
</g>
<defs>
<mask id="mask-_a8cjSo8mGKyDewF6gcWZ" style="mask-type:alpha" maskUnits="userSpaceOnUse">
<path d="M14.831 3.8918L3.03499 3.8918L3.03499 14.2288L14.831 14.2288L14.831 3.8918Z"   fill="#000000" >
</path>
</mask>
</defs>
</svg>
