<svg width="35" height="36" viewBox="0 0 35 36" fill="none" xmlns="http://www.w3.org/2000/svg">
<path d="M23.5855 20.0603V13.0333L17.4999 9.51965L11.4144 13.0333V20.0603L17.4999 23.574L23.5855 20.0603ZM16.6507 20.9398L14.0995 17.1127C13.8709 16.7699 13.8709 16.3232 14.0995 15.9803L16.6507 12.1539C17.0365 11.5529 17.9634 11.553 18.3491 12.1539L20.9003 15.9803C21.1289 16.3232 21.1289 16.7699 20.9003 17.1127L18.3491 20.9398C17.9634 21.5408 17.0364 21.5407 16.6507 20.9398Z" fill="#878787"/>
<path d="M26.7928 3.5H8.2072C6.41515 3.5 5 4.9555 5 6.7072V30.7591C5 32.5512 6.4555 33.9663 8.2072 33.9663H26.7928C28.5851 33.9663 30 32.5107 30 30.7591V6.7072C30 4.91494 28.5444 3.5 26.7928 3.5ZM9.37309 12.4441C9.37309 12.0794 9.56764 11.7424 9.88344 11.5602L16.9897 7.45713C17.3055 7.27477 17.6945 7.27477 18.0104 7.45713L25.1166 11.5602C25.4324 11.7425 25.627 12.0794 25.627 12.4441V20.6496C25.627 21.0142 25.4324 21.3512 25.1166 21.5335L18.0104 25.6365C17.6945 25.8189 17.3055 25.8189 16.9897 25.6365L9.88344 21.5335C9.56764 21.3511 9.37309 21.0142 9.37309 20.6496V12.4441ZM24.6062 29.5932H10.3938C9.04096 29.543 9.04198 27.6016 10.3938 27.5519H24.6062C25.959 27.6021 25.958 29.5436 24.6062 29.5932Z" fill="#878787"/>
<path d="M18.8244 16.5464L17.5 14.5599L16.1755 16.5464L17.5 18.5332L18.8244 16.5464Z" fill="#878787"/>
</svg>
